<?xml version="1.0" standalone="no"?>
<!DOCTYPE svg PUBLIC "-//W3C//DTD SVG 20010904//EN"
 "http://www.w3.org/TR/2001/REC-SVG-20010904/DTD/svg10.dtd">
<svg version="1.0" xmlns="http://www.w3.org/2000/svg"
 width="709.000000pt" height="709.000000pt" viewBox="0 0 709.000000 709.000000"
 preserveAspectRatio="xMidYMid meet">
<metadata>
Created by potrace 1.14, written by Peter Selinger 2001-2017
</metadata>
<g transform="translate(0.000000,709.000000) scale(0.100000,-0.100000)"
fill="#000000" stroke="none">
<path d="M1068 7060 c-13 -11 -18 -19 -11 -20 7 0 9 -13 6 -37 -2 -21 -5 -42
-5 -48 -1 -5 2 -21 6 -34 5 -14 4 -21 -1 -18 -5 4 -10 0 -10 -8 0 -8 3 -15 7
-15 8 0 5 -64 -4 -78 -3 -6 -2 -13 2 -16 10 -6 8 -48 -3 -65 -3 -6 -2 -11 2
-11 8 0 8 -14 1 -75 -1 -5 2 -21 6 -34 5 -14 4 -21 -1 -18 -5 4 -10 0 -10 -8
0 -8 3 -15 7 -15 8 0 5 -64 -4 -78 -3 -6 -2 -14 4 -17 8 -5 8 -11 0 -20 -8
-10 -8 -15 1 -20 8 -6 7 -10 -2 -16 -8 -5 -9 -9 -3 -9 11 0 12 -79 1 -97 -4
-7 -3 -14 3 -18 5 -3 10 -11 10 -16 0 -6 -4 -8 -8 -5 -5 3 -9 -1 -9 -9 0 -8 3
-15 7 -15 8 0 5 -64 -4 -78 -3 -6 -2 -13 4 -17 7 -4 7 -12 0 -26 -8 -14 -7
-19 2 -19 9 0 9 -3 -2 -10 -8 -5 -10 -10 -3 -10 12 0 10 -60 -3 -81 -5 -8 -3
-9 5 -4 10 6 11 3 2 -14 -7 -11 -8 -21 -2 -21 5 0 8 -11 7 -24 0 -13 -4 -22
-8 -19 -5 2 -8 -1 -8 -6 0 -6 6 -11 13 -11 9 0 8 -3 -2 -9 -11 -7 -11 -9 0
-13 12 -4 12 -7 0 -21 -7 -10 -9 -17 -4 -17 5 0 10 -13 10 -30 0 -16 -4 -27
-9 -24 -4 3 -5 -2 -2 -10 3 -9 11 -13 18 -10 6 3 2 -2 -8 -10 -11 -9 -15 -16
-9 -16 6 0 14 -7 17 -16 3 -8 2 -12 -4 -9 -6 3 -10 -3 -10 -15 0 -14 4 -19 13
-14 8 5 8 2 -2 -9 -7 -9 -10 -17 -6 -17 4 0 1 -8 -6 -17 -12 -14 -12 -16 0 -8
11 6 13 3 9 -13 -4 -12 -2 -25 3 -28 5 -3 6 -10 2 -16 -8 -14 -8 -70 0 -91 4
-10 1 -17 -6 -17 -8 0 -6 -4 3 -10 11 -7 11 -10 2 -10 -9 0 -10 -5 -4 -17 5
-10 7 -24 4 -32 -2 -7 2 -17 9 -22 10 -6 10 -9 2 -9 -15 0 -13 -41 2 -52 6 -5
5 -8 -4 -8 -11 0 -11 -3 -1 -15 10 -12 10 -15 -1 -15 -10 0 -10 -3 -1 -12 7
-7 8 -17 2 -29 -7 -11 -7 -20 0 -24 5 -3 7 -12 3 -20 -3 -8 0 -15 7 -15 9 0 7
-7 -4 -25 -15 -23 -15 -24 0 -18 14 5 15 3 7 -12 -6 -11 -7 -30 -3 -46 5 -15
6 -30 3 -33 -3 -3 0 -13 8 -23 9 -11 10 -14 2 -9 -15 8 -15 0 -4 -29 5 -11 5
-28 0 -37 -6 -11 -5 -19 3 -24 7 -5 8 -3 3 6 -5 9 -4 11 4 6 8 -6 9 -12 2 -20
-6 -7 -8 -15 -5 -19 3 -3 6 -25 7 -49 0 -23 6 -46 11 -50 8 -5 8 -8 0 -8 -12
0 -12 -28 -1 -47 4 -6 3 -15 -3 -18 -7 -5 -8 -11 -1 -19 6 -6 10 -21 11 -31 1
-41 5 -70 13 -82 5 -7 5 -13 1 -13 -3 0 0 -8 7 -17 10 -12 10 -15 1 -9 -10 6
-11 -2 -5 -36 3 -24 7 -53 7 -65 0 -13 3 -23 6 -23 4 0 6 -16 5 -35 0 -19 2
-35 6 -35 3 0 5 -13 4 -30 -1 -16 1 -30 4 -30 4 0 7 -9 8 -20 1 -11 -2 -18 -7
-15 -5 3 -3 -6 5 -21 7 -14 12 -35 10 -45 -2 -11 0 -19 5 -19 10 0 8 -19 -4
-39 -7 -10 -6 -12 4 -6 10 6 12 4 7 -8 -3 -9 -1 -17 5 -19 6 -2 12 -12 14 -21
1 -9 -2 -15 -7 -11 -5 3 -9 1 -9 -5 0 -5 5 -13 10 -16 6 -4 7 -11 4 -17 -4 -6
0 -14 7 -19 11 -7 11 -9 1 -9 -10 0 -10 -5 -2 -20 6 -11 8 -20 4 -20 -3 0 0
-8 7 -17 12 -15 12 -16 -1 -8 -13 8 -13 7 -1 -9 8 -9 15 -29 17 -44 1 -15 5
-45 8 -67 4 -22 7 -46 8 -52 1 -7 5 -13 10 -13 4 0 8 -5 8 -11 0 -5 -5 -7 -12
-3 -7 5 -8 3 -2 -7 14 -22 32 -79 24 -74 -8 5 10 -52 24 -74 6 -10 5 -12 -2
-7 -8 5 -10 2 -6 -8 3 -9 9 -14 13 -12 3 2 6 -11 5 -30 -1 -19 2 -34 6 -34 5
0 7 -9 5 -20 -2 -11 0 -20 5 -20 5 0 6 -7 3 -17 -4 -9 -2 -14 3 -10 5 3 9 -7
8 -21 -1 -31 5 -54 15 -48 3 2 7 -14 9 -37 1 -23 7 -44 13 -48 5 -3 9 -10 8
-15 -3 -20 1 -45 9 -41 4 3 8 -6 8 -19 1 -15 -2 -21 -9 -17 -6 4 0 -9 13 -27
13 -18 17 -30 9 -25 -12 7 -12 6 -1 -7 7 -9 15 -31 17 -49 2 -17 8 -35 12 -38
5 -3 8 -13 8 -21 0 -8 6 -20 15 -27 12 -10 12 -12 1 -13 -12 0 -11 -3 1 -17 9
-10 13 -24 11 -30 -3 -7 0 -13 5 -13 6 0 9 -8 8 -17 -2 -10 1 -20 5 -23 5 -3
11 -17 13 -30 2 -14 5 -27 6 -30 2 -3 2 -8 2 -12 -1 -3 5 -12 13 -18 8 -7 15
-18 15 -24 0 -6 -5 -4 -10 4 -6 9 -10 10 -10 3 0 -6 10 -19 22 -27 13 -10 17
-16 9 -16 -10 0 -9 -6 5 -22 10 -12 13 -18 7 -14 -19 11 -16 -5 5 -21 9 -8 11
-11 4 -8 -11 6 -11 3 0 -16 7 -13 15 -26 18 -29 3 -3 6 -16 8 -28 2 -13 14
-44 27 -68 13 -24 18 -41 12 -37 -7 3 -4 -3 6 -14 9 -11 14 -23 10 -26 -3 -4
0 -7 7 -7 7 0 11 -3 7 -6 -3 -4 0 -19 8 -34 8 -15 11 -30 8 -34 -4 -3 -1 -6 6
-6 7 0 9 -4 6 -10 -3 -5 -1 -10 5 -10 6 0 8 -4 5 -10 -3 -5 -1 -10 5 -10 6 0
9 -4 5 -9 -3 -5 2 -17 11 -25 8 -9 10 -16 4 -16 -6 0 -1 -10 10 -23 13 -13 20
-31 17 -44 -2 -14 0 -20 8 -17 7 3 15 -2 19 -11 4 -11 2 -14 -7 -9 -7 4 -6 -1
3 -12 8 -10 21 -30 28 -43 11 -19 11 -22 0 -16 -7 3 -5 0 5 -8 10 -8 16 -21
15 -28 -2 -8 2 -13 9 -12 7 2 10 -4 7 -12 -4 -8 -1 -15 5 -15 6 0 11 -9 11
-20 0 -11 5 -20 10 -20 6 0 10 -9 10 -20 0 -11 5 -20 11 -20 5 0 7 -4 4 -10
-3 -5 -1 -10 5 -10 6 0 8 -4 5 -10 -3 -5 -2 -10 3 -10 6 0 13 -11 16 -25 4
-14 11 -23 16 -20 6 3 7 -1 4 -9 -4 -10 -1 -16 7 -16 7 0 9 -3 6 -7 -4 -3 0
-14 9 -24 8 -9 16 -26 17 -37 0 -11 5 -20 10 -19 5 1 11 -6 12 -16 2 -10 12
-25 22 -34 10 -8 12 -11 4 -8 -9 5 -8 -1 4 -19 10 -14 22 -26 27 -26 5 0 7 -4
4 -9 -3 -5 3 -20 14 -34 11 -14 20 -30 20 -36 0 -6 5 -11 11 -11 6 0 9 -6 6
-13 -3 -8 3 -20 13 -27 11 -8 17 -17 14 -22 -3 -4 0 -8 6 -8 7 0 10 -7 7 -14
-4 -11 -1 -13 10 -9 10 4 14 2 10 -4 -4 -6 5 -26 20 -45 20 -23 22 -29 8 -19
-11 7 -8 2 8 -12 15 -14 27 -31 27 -37 0 -6 4 -9 9 -6 5 3 8 -2 7 -12 0 -9 5
-16 12 -14 8 1 10 -2 7 -8 -4 -6 3 -20 16 -31 12 -10 20 -22 16 -25 -3 -3 2
-14 11 -24 29 -32 42 -49 42 -55 0 -11 27 -34 33 -28 4 3 5 -4 2 -16 -2 -13 1
-21 10 -21 7 0 19 -13 26 -29 7 -16 17 -27 21 -25 4 3 8 -2 8 -10 0 -9 5 -16
10 -16 6 0 10 -5 10 -11 0 -16 26 -39 35 -31 5 4 5 2 2 -4 -4 -6 1 -21 11 -32
9 -11 23 -29 30 -39 7 -10 10 -11 7 -3 -4 8 3 4 14 -10 11 -14 21 -30 21 -37
0 -6 9 -14 20 -18 11 -3 19 -9 19 -13 -3 -20 2 -32 11 -27 5 3 10 0 10 -7 0
-7 13 -24 30 -38 16 -14 30 -31 30 -38 0 -7 5 -10 10 -7 5 3 10 -1 10 -10 0
-9 4 -13 10 -10 5 3 10 -1 10 -9 0 -9 5 -16 11 -16 5 0 7 -5 4 -10 -4 -6 -3
-9 2 -8 12 4 123 -109 116 -116 -4 -3 1 -6 10 -6 16 0 22 -12 18 -34 -1 -5 5
-3 14 4 13 11 15 10 9 -4 -5 -14 5 -21 22 -13 3 1 12 -11 20 -26 8 -15 19 -25
24 -22 6 4 10 0 10 -7 0 -7 14 -24 30 -37 16 -13 28 -27 25 -31 -3 -4 3 -7 13
-6 9 0 16 -5 14 -12 -1 -6 4 -12 12 -12 8 0 24 -12 35 -26 12 -15 21 -24 21
-20 0 6 18 -9 86 -74 12 -11 26 -20 33 -20 6 0 11 -4 11 -9 0 -5 9 -13 20 -16
12 -4 36 -22 55 -41 19 -19 37 -34 40 -34 22 1 25 -1 20 -10 -3 -5 1 -10 9
-10 9 0 16 -5 16 -12 0 -6 3 -8 7 -5 3 4 16 1 28 -7 20 -13 25 -13 41 2 11 9
28 24 39 32 17 13 18 13 11 0 -4 -9 -1 -8 7 3 8 9 19 17 26 17 6 0 11 8 11 18
0 13 2 14 9 3 7 -11 10 -9 16 8 4 14 12 20 21 17 8 -3 14 1 14 8 0 8 9 16 21
19 14 4 18 10 13 19 -5 9 -2 8 11 -2 11 -9 16 -10 11 -3 -4 8 2 17 18 24 14 7
23 16 20 20 -5 9 36 35 49 31 5 -1 6 2 2 8 -3 5 5 15 19 21 14 7 23 17 19 22
-4 6 0 8 9 4 11 -4 18 1 21 15 3 11 10 17 16 14 5 -4 12 3 16 14 4 11 9 19 13
17 4 -2 25 14 47 36 22 22 34 36 26 32 -10 -5 -12 -4 -7 4 4 6 11 9 16 6 5 -3
15 4 23 15 7 11 17 17 20 13 4 -3 7 1 7 10 0 8 9 19 20 22 11 4 18 10 15 15
-3 4 2 11 11 14 8 3 13 10 9 15 -3 6 3 8 13 6 13 -2 19 2 18 13 0 9 5 16 12
14 8 -1 11 1 8 6 -3 5 15 26 39 48 25 21 45 45 45 52 0 7 7 15 15 18 8 4 12
10 9 15 -3 5 0 8 8 7 7 -2 12 2 11 9 -2 8 4 10 15 6 9 -3 14 -3 10 1 -7 9 4
25 39 58 12 12 20 24 18 28 -2 4 6 13 20 20 15 8 21 18 18 28 -4 9 -2 13 3 9
6 -3 18 7 28 24 9 16 21 29 27 29 5 0 9 7 9 15 0 8 7 15 16 15 8 0 13 4 9 10
-7 11 30 51 40 42 3 -4 3 1 0 10 -4 11 1 20 15 28 11 6 19 14 16 18 -6 10 21
32 30 24 4 -4 4 -2 0 5 -8 14 23 55 36 47 5 -3 8 -2 7 3 -4 15 21 63 32 63 8
0 7 6 -2 17 -10 12 -10 15 -1 9 15 -9 46 19 37 34 -3 5 1 10 10 10 9 0 14 4
10 9 -3 5 5 17 17 25 12 9 19 16 15 16 -4 0 0 14 8 30 9 18 21 28 27 24 7 -4
8 -3 4 5 -4 6 0 18 8 27 9 8 16 22 16 30 0 9 5 12 12 8 8 -5 9 -2 5 9 -4 10
-2 16 5 14 7 -1 12 3 13 8 0 6 6 20 13 31 6 12 9 24 7 28 -3 3 -2 4 2 1 8 -6
38 37 63 92 10 24 23 43 28 43 6 0 9 8 8 18 0 9 5 16 12 14 7 -1 12 3 11 10
-3 29 2 49 11 43 6 -3 10 -1 10 4 0 20 3 26 19 39 13 11 13 12 1 7 -10 -4 -9
-2 2 8 10 8 15 17 11 20 -3 4 -1 7 6 7 7 0 9 5 6 10 -3 6 -1 10 4 10 6 0 10 6
9 13 -2 6 2 11 8 10 7 -1 10 6 7 17 -3 11 0 20 6 20 6 0 11 9 11 20 0 11 5 20
11 20 5 0 7 4 4 10 -3 5 -1 10 5 10 6 0 8 5 5 10 -3 6 -1 10 6 10 7 0 9 3 6 7
-4 3 1 12 11 20 9 8 12 12 5 9 -8 -5 -8 0 0 19 7 14 15 25 20 25 4 0 7 7 7 15
0 8 6 15 13 15 8 0 7 4 -3 10 -11 7 -11 10 -2 10 7 0 10 5 7 10 -3 5 -1 10 5
10 6 0 8 5 5 10 -3 6 -1 10 6 10 7 0 9 3 6 7 -4 3 1 12 11 20 9 8 11 11 4 8
-11 -6 -11 -3 0 16 7 13 18 27 23 31 7 5 7 8 0 8 -5 0 -1 7 9 15 14 11 16 15
5 15 -10 1 -9 5 5 15 14 11 16 15 5 15 -10 1 -9 3 4 11 9 5 17 18 17 27 0 10
6 24 13 31 10 11 9 12 -3 6 -10 -6 -8 -1 4 13 11 12 16 22 12 22 -3 0 1 11 10
25 9 14 14 32 10 40 -3 8 -2 14 2 12 4 -1 8 2 9 7 1 5 7 13 15 17 10 7 10 9
-2 9 -13 1 -13 2 0 13 15 12 20 26 23 59 1 9 5 14 9 12 4 -3 8 4 8 16 0 14 4
19 13 14 8 -5 8 -2 -2 9 -10 13 -10 17 -1 17 7 0 10 7 6 16 -3 8 -2 12 4 9 6
-3 10 5 10 19 0 14 4 27 9 31 5 3 15 30 22 60 7 30 16 55 21 55 5 0 6 5 3 10
-3 6 -2 10 2 10 5 0 10 9 11 20 4 44 6 50 14 50 5 0 6 5 3 10 -3 6 -1 10 5 10
6 0 8 5 5 10 -4 6 -2 16 3 23 5 7 8 22 7 34 -1 12 2 20 6 17 4 -2 10 0 13 5 4
5 1 13 -5 17 -8 4 -8 8 0 13 9 6 17 32 20 64 1 5 5 6 10 3 4 -3 6 6 3 19 -3
17 0 25 9 25 11 0 11 2 -1 10 -11 7 -11 10 -2 10 7 0 10 4 7 10 -3 6 -2 10 4
10 5 0 8 8 6 18 -1 9 2 23 8 30 5 6 6 12 2 12 -4 0 -3 6 3 13 6 6 10 14 10 17
-3 17 14 80 21 76 4 -3 6 8 3 23 -2 16 1 32 8 36 8 5 8 11 -2 23 -7 10 -8 14
-4 10 14 -12 35 34 23 50 -6 7 -6 12 0 12 5 0 10 6 11 13 3 28 10 62 11 62 4
0 11 37 14 67 1 16 6 28 11 28 5 0 3 7 -4 15 -10 12 -9 16 3 21 8 3 15 15 16
27 2 59 7 87 14 87 5 0 6 4 3 9 -4 5 0 12 6 14 10 4 10 6 0 6 -10 1 -10 6 -2
21 6 11 7 20 3 20 -4 0 -1 5 7 10 9 6 11 10 3 10 -7 0 -10 7 -7 15 4 8 11 12
16 9 6 -4 5 3 -1 15 -7 11 -8 21 -3 21 13 0 11 30 -2 30 -6 0 -4 5 6 10 9 6
15 18 13 28 -1 9 2 25 7 35 6 12 5 17 -4 17 -9 0 -10 3 -2 8 6 4 10 15 8 24
-1 10 2 20 7 24 5 3 7 10 3 15 -3 5 0 17 7 25 10 13 10 17 0 23 -10 6 -9 12 3
24 12 11 13 17 3 20 -8 4 -8 6 0 6 6 1 9 10 5 23 -4 16 -2 19 9 13 11 -7 12
-6 2 6 -7 9 -8 20 -3 29 4 7 4 24 -1 37 -6 17 -6 22 2 17 8 -5 10 1 7 20 -3
14 -2 26 3 26 4 0 6 12 5 28 -2 15 1 35 6 46 7 13 6 21 -3 27 -10 6 -11 9 -1
9 7 0 12 14 12 38 0 21 6 44 13 51 10 11 9 12 -3 6 -13 -8 -13 -7 -1 8 7 10 9
17 3 17 -11 0 -11 25 0 36 4 3 4 13 1 22 -4 10 -2 13 5 8 7 -4 8 2 2 24 -5 17
-5 32 1 35 5 4 9 11 9 16 0 6 -6 7 -12 3 -9 -5 -9 -2 1 9 7 9 10 17 5 17 -4 0
-3 5 3 11 7 7 8 21 3 40 -5 16 -5 29 -1 29 5 0 8 17 9 38 1 107 6 168 14 179
6 7 5 14 -3 18 -8 6 -7 10 2 16 12 7 12 9 0 9 -10 0 -11 3 -2 14 8 10 9 16 1
21 -6 3 -7 12 -3 18 13 20 12 97 -1 90 -6 -4 -5 1 3 10 7 9 11 28 9 42 -3 14
-2 25 1 25 9 0 5 95 -4 110 -5 9 -4 11 4 6 8 -6 10 1 6 25 -3 18 -9 37 -12 42
-4 6 -1 7 7 2 10 -6 12 -2 7 15 -3 13 -1 31 6 39 9 12 9 13 0 7 -7 -4 -13 -2
-13 3 0 6 5 11 11 11 8 0 8 4 1 13 -6 7 -9 22 -8 32 2 11 -2 26 -8 34 -8 11
-8 13 0 8 7 -4 14 0 18 8 3 8 1 17 -4 20 -15 9 -12 27 3 19 9 -5 9 -4 0 6 -9
9 -9 19 -2 33 8 14 8 18 0 13 -15 -10 -14 7 1 22 8 8 9 12 1 12 -12 0 -12 18
0 37 4 6 3 14 -3 18 -5 3 -10 11 -10 16 0 6 4 8 8 5 4 -2 8 4 8 14 0 10 -4 16
-9 13 -5 -3 -4 4 2 15 8 14 8 21 0 24 -7 2 -7 12 0 31 6 15 7 27 2 27 -5 0 -8
11 -7 24 0 13 4 22 9 19 4 -2 7 0 7 6 0 5 -6 11 -12 14 -10 3 -10 7 0 19 10
13 10 17 0 20 -10 4 -10 8 1 21 7 10 9 17 3 17 -11 0 -11 18 1 38 5 6 4 12 -2
12 -7 0 -7 8 -1 24 6 17 5 26 -2 28 -8 3 -7 11 2 27 7 15 8 21 1 17 -14 -9
-14 0 0 26 9 16 8 19 -3 12 -11 -6 -11 -5 0 8 7 9 9 19 4 22 -10 6 -9 36 2 54
4 6 3 12 -3 12 -10 0 -10 18 2 37 4 6 3 14 -3 18 -6 4 -7 12 -3 18 10 17 10
41 -1 49 -6 4 -4 13 3 22 9 11 10 16 2 16 -12 0 -9 40 5 61 4 8 3 9 -4 5 -15
-9 -15 -1 -2 24 7 13 7 21 0 25 -8 5 -8 11 0 20 8 9 8 15 0 20 -5 3 -10 11
-10 16 0 6 4 8 9 5 4 -3 6 7 4 22 -7 44 -6 85 2 107 5 16 5 17 -4 5 -9 -12
-11 -11 -11 9 0 21 -2 22 -17 10 -13 -11 -17 -11 -20 -1 -3 6 -9 12 -14 12 -6
0 -8 -4 -5 -9 3 -4 -7 -6 -22 -4 -41 6 -46 6 -64 -2 -11 -4 -18 -3 -18 4 0 6
-5 11 -11 11 -5 0 -8 -4 -5 -9 3 -4 -7 -6 -22 -4 -41 6 -46 6 -64 -2 -11 -4
-18 -3 -18 4 0 6 -5 11 -11 11 -5 0 -8 -4 -5 -9 3 -4 -7 -6 -22 -4 -41 6 -46
6 -64 -2 -11 -4 -18 -3 -18 4 0 6 -5 11 -11 11 -5 0 -8 -4 -5 -9 3 -4 -7 -6
-22 -4 -41 6 -46 6 -64 -2 -11 -4 -18 -3 -18 4 0 6 -5 11 -11 11 -5 0 -8 -4
-5 -9 3 -4 -7 -6 -22 -4 -41 6 -46 6 -64 -2 -11 -4 -18 -3 -18 4 0 6 -5 11
-11 11 -5 0 -8 -4 -5 -9 3 -4 -7 -6 -22 -4 -41 6 -46 6 -64 -2 -11 -4 -18 -3
-18 4 0 6 -5 11 -11 11 -5 0 -8 -4 -5 -9 3 -4 -7 -6 -22 -4 -41 6 -46 6 -64
-2 -11 -4 -18 -3 -18 4 0 6 -5 11 -11 11 -5 0 -8 -4 -5 -9 3 -4 -7 -6 -22 -4
-41 6 -46 6 -64 -2 -11 -4 -18 -3 -18 4 0 6 -5 11 -11 11 -5 0 -8 -4 -5 -9 3
-4 -7 -6 -22 -4 -41 6 -46 6 -64 -2 -11 -4 -18 -3 -18 4 0 6 -5 11 -11 11 -5
0 -8 -4 -5 -9 3 -4 -7 -6 -22 -4 -41 6 -46 6 -64 -2 -11 -4 -18 -3 -18 4 0 6
-5 11 -11 11 -5 0 -8 -4 -5 -9 3 -4 -7 -6 -22 -4 -41 6 -46 6 -64 -2 -11 -4
-18 -3 -18 4 0 6 -5 11 -11 11 -5 0 -8 -4 -5 -9 3 -4 -7 -6 -22 -4 -41 6 -46
6 -64 -2 -11 -4 -18 -3 -18 4 0 6 -5 11 -11 11 -5 0 -8 -4 -5 -9 3 -4 -7 -6
-22 -4 -41 6 -46 6 -64 -2 -11 -4 -18 -3 -18 4 0 6 -5 11 -11 11 -5 0 -8 -4
-5 -9 3 -4 -7 -6 -22 -4 -41 6 -46 6 -64 -2 -11 -4 -18 -3 -18 4 0 6 -5 11
-11 11 -5 0 -8 -4 -5 -9 3 -4 -7 -6 -22 -4 -41 6 -46 6 -64 -2 -11 -4 -18 -3
-18 4 0 6 -5 11 -11 11 -5 0 -8 -4 -5 -9 3 -4 -7 -6 -22 -4 -41 6 -46 6 -64
-2 -11 -4 -18 -3 -18 4 0 6 -5 11 -11 11 -5 0 -8 -4 -5 -9 3 -4 -7 -6 -22 -4
-41 6 -46 6 -64 -2 -11 -4 -18 -3 -18 4 0 6 -5 11 -11 11 -5 0 -8 -4 -5 -9 3
-4 -7 -6 -22 -4 -41 6 -46 6 -64 -2 -11 -4 -18 -3 -18 4 0 6 -5 11 -11 11 -5
0 -8 -4 -5 -9 3 -4 -7 -6 -22 -4 -41 6 -46 6 -64 -2 -11 -4 -18 -3 -18 4 0 6
-5 11 -11 11 -5 0 -8 -4 -5 -9 3 -4 -7 -6 -22 -4 -41 6 -46 6 -64 -2 -11 -4
-18 -3 -18 4 0 6 -5 11 -11 11 -5 0 -8 -4 -5 -9 3 -4 -7 -6 -22 -4 -41 6 -46
6 -64 -2 -11 -4 -18 -3 -18 4 0 6 -5 11 -11 11 -5 0 -8 -4 -5 -9 3 -4 -7 -6
-22 -4 -41 6 -46 6 -64 -2 -11 -4 -18 -3 -18 4 0 6 -5 11 -11 11 -5 0 -8 -4
-5 -9 3 -4 -7 -6 -22 -4 -41 6 -46 6 -64 -2 -11 -4 -18 -3 -18 4 0 6 -5 11
-11 11 -5 0 -8 -4 -5 -9 3 -4 -7 -6 -22 -4 -41 6 -46 6 -64 -2 -11 -4 -18 -3
-18 4 0 6 -5 11 -11 11 -5 0 -8 -4 -5 -9 3 -4 -7 -6 -22 -4 -41 6 -46 6 -64
-2 -11 -4 -18 -3 -18 4 0 6 -5 11 -11 11 -5 0 -8 -4 -5 -9 3 -4 -7 -6 -22 -4
-41 6 -46 6 -64 -2 -11 -4 -18 -3 -18 4 0 6 -5 11 -11 11 -5 0 -8 -4 -5 -9 3
-4 -7 -6 -22 -4 -41 6 -46 6 -64 -2 -11 -4 -18 -3 -18 4 0 6 -5 11 -11 11 -5
0 -8 -4 -5 -9 3 -4 -7 -6 -22 -4 -41 6 -46 6 -64 -2 -11 -4 -18 -3 -18 4 0 6
-5 11 -11 11 -5 0 -8 -4 -5 -9 3 -4 -7 -6 -22 -4 -41 6 -46 6 -64 -2 -11 -4
-18 -3 -18 4 0 6 -5 11 -11 11 -5 0 -8 -4 -5 -9 3 -4 -7 -6 -22 -4 -41 6 -46
6 -64 -2 -11 -4 -18 -3 -18 4 0 6 -5 11 -11 11 -5 0 -8 -4 -5 -9 3 -4 -7 -6
-22 -4 -41 6 -46 6 -64 -2 -11 -4 -18 -3 -18 4 0 6 -5 11 -11 11 -5 0 -8 -4
-5 -9 3 -4 -7 -6 -22 -4 -41 6 -46 6 -64 -2 -11 -4 -18 -3 -18 4 0 6 -5 11
-11 11 -5 0 -8 -4 -5 -9 3 -4 -7 -6 -22 -4 -41 6 -46 6 -64 -2 -11 -4 -18 -3
-18 4 0 6 -5 11 -11 11 -5 0 -8 -4 -5 -9 3 -4 -7 -6 -22 -4 -41 6 -46 6 -64
-2 -11 -4 -18 -3 -18 4 0 6 -5 11 -11 11 -5 0 -8 -4 -5 -9 3 -4 -7 -6 -22 -4
-41 6 -46 6 -64 -2 -11 -4 -18 -3 -18 4 0 6 -5 11 -11 11 -5 0 -8 -4 -5 -9 3
-4 -7 -6 -22 -4 -41 6 -46 6 -64 -2 -11 -4 -18 -3 -18 4 0 6 -5 11 -11 11 -5
0 -8 -4 -5 -9 3 -4 -7 -6 -22 -4 -41 6 -46 6 -64 -2 -11 -4 -18 -3 -18 4 0 6
-5 11 -11 11 -5 0 -8 -4 -5 -9 3 -4 -7 -6 -22 -4 -41 6 -46 6 -64 -2 -11 -4
-18 -3 -18 4 0 6 -5 11 -11 11 -5 0 -8 -4 -5 -9 3 -4 -7 -6 -22 -4 -41 6 -46
6 -64 -2 -11 -4 -18 -3 -18 4 0 9 -5 9 -21 0 -16 -8 -20 -8 -14 1 6 9 3 9 -12
2 -11 -6 -25 -7 -33 -2 -8 5 -22 4 -32 -1 -13 -7 -18 -6 -18 3 0 9 -3 9 -11 1
-8 -8 -20 -8 -35 -3 -17 7 -29 4 -46 -10z"/>
</g>
</svg>
